# xmcd
#
# Track frame offsets:
#	150
#	14187
#	30545
#	44622
#	57467
#	66855
#	76202
#	89165
#	99815
#	112102
#	124945
#	136790
#
# Disc length: 1962 seconds
#
# Revision: 1
# Processed by: cddbd v1.5.1PL0 Copyright (c) Steve Scherf et al.
# Submitted via: audiograbber 1.83.01
#
DISCID=a907a80c
DTITLE=Marshall Family, The - The Legendary Marshall Family - Volume One
DYEAR=2002
DGENRE=Bluegrass
TTITLE0=Amen, There's A Higher Power
TTITLE1=I Just Want To Thank You, Lord
TTITLE2=Take A Little Time For Jesus
TTITLE3=I Need Jesus
TTITLE4=Prophet Admiration
TTITLE5=Children Go Where I Send Thee
TTITLE6=Housewives' Prayer
TTITLE7=The Lifeguard
TTITLE8=Amazing Grace
TTITLE9=Mama Always Had A Song To Sing
TTITLE10=The Prettiest Flowers
TTITLE11=Crying Holy
EXTD=
EXTT0=
EXTT1=
EXTT2=
EXTT3=
EXTT4=
EXTT5=
EXTT6=
EXTT7=
EXTT8=
EXTT9=
EXTT10=
EXTT11=
PLAYORDER=
